<svg xmlns="http://www.w3.org/2000/svg" width="443.656" height="611.5" viewBox="0 0 443.656 611.5">
  <defs>
    <style>
      .cls-1 {
        fill: #fff;
        fill-rule: evenodd;
      }
    </style>
  </defs>
  <path id="Forma_1" data-name="Forma 1" class="cls-1" d="M408.336,307.112v-98.42c0-59.551-17.949-111.331-52.794-149.736C321.348,21.261,274.5.5,223.2,0.5S124.469,21.261,90.272,58.956c-34.842,38.4-53.607,90.185-53.607,149.736v98.42C17.1,313.171.336,332.477,0.336,355.4V562.2c0,27.78,23.452,50.3,51.232,50.3H395.294c27.78,0,49.37-22.522,49.37-50.3V355.4C444.664,332.477,430.692,313.171,408.336,307.112Zm-187,188.948A37.259,37.259,0,1,1,258.594,458.8,37.26,37.26,0,0,1,221.335,496.06ZM338.473,305.1H106.528v-96.41c0-81.446,47.688-138.329,115.972-138.329s115.973,56.883,115.973,138.329V305.1Z" transform="translate(-0.344 -0.5)"/>
</svg>
