<svg xmlns="http://www.w3.org/2000/svg" width="443.406" height="611.5" viewBox="0 0 443.406 611.5">
  <defs>
    <style>
      .cls-1 {
        fill: #2c93f3;
        fill-rule: evenodd;
      }
    </style>
  </defs>
  <path id="Forma_1" data-name="Forma 1" class="cls-1" d="M395.1,305.453H103.868v-97c0-81.354,48.1-138.172,116.307-138.172,63.874,0,116.072,51.966,116.072,115.84a34.98,34.98,0,0,0,69.959,0C406.206,83.771,322.963.5,220.61,0.5c-51.24,0-98.721,20.737-132.876,58.389C52.929,97.251,34.085,148.971,34.085,208.455v99.918A50.169,50.169,0,0,0,.589,355.7V562.256c0,27.749,23.425,50.244,51.174,50.244H395.1c27.749,0,49.314-22.5,49.314-50.244V355.7C444.411,327.948,422.846,305.453,395.1,305.453ZM227.616,503.87a37.218,37.218,0,1,1,37.217-37.218A37.218,37.218,0,0,1,227.616,503.87Z" transform="translate(-0.594 -0.5)"/>
</svg>
