<svg xmlns="http://www.w3.org/2000/svg" width="495.938" height="611.5" viewBox="0 0 495.938 611.5">
  <defs>
    <style>
      .cls-1 {
        fill: #fff;
        fill-rule: evenodd;
      }
    </style>
  </defs>
  <path id="Forma_1" data-name="Forma 1" class="cls-1" d="M455.639,69.086h-30.9V32.923c0-17.468-12.435-32.423-29.9-32.423H102.916c-17.468,0-31.657,14.955-31.657,32.423V69.086h-31.6C26.036,69.086.034,76.4,0.034,108.022v51.949c0,56.288,38.864,103.755,91.307,117.625,22.46,45.143,61.944,79.467,109.374,93.549A22.119,22.119,0,0,0,187.578,391.3c0,4.782,1.583,10.167,4.194,12.8h-0.863c-11.918,0-21.665,10.552-22.348,21.1H139.684a28.852,28.852,0,0,0-28.933,28.973l0.485,95.009H97.857c-17.118,0-31.874,13.878-31.874,31V581.5c0,17.118,14.756,31,31.874,31h299.4c17.119,0,30.118-13.878,30.118-31v-1.319c0-17.118-13-31-30.118-31H386.517L387,454.144a28.849,28.849,0,0,0-28.934-28.937H329.2c-0.683-10.552-10.43-21.1-22.349-21.1h-0.862c2.611-2.637,4.163-8.019,4.163-12.8a22.165,22.165,0,0,0-13.166-20.17c47.43-14.078,86.094-48.4,108.553-93.541a121.448,121.448,0,0,0,90.432-117.617V109.84C495.966,76.781,470.113,69.086,455.639,69.086ZM47.517,171.427V116.569H71.259v74.477a196.064,196.064,0,0,0,5.927,48.762A93.843,93.843,0,0,1,47.517,171.427Zm255.665,66.714-54.3-39.454-54.3,39.454L215.319,174.4l-54.3-39.36h67.122L248.881,71.2l20.739,63.836h67.122l-54.3,39.36Zm145.3-66.714a93.829,93.829,0,0,1-29.674,68.386,195.956,195.956,0,0,0,5.933-48.767V116.569h23.741v54.858Z" transform="translate(-0.031 -0.5)"/>
</svg>
