<svg xmlns="http://www.w3.org/2000/svg" width="790" height="612" viewBox="0 0 790 612">
  <defs>
    <style>
      .cls-1 {
        fill: #fff;
        fill-rule: evenodd;
      }
    </style>
  </defs>
  <path id="Forma_1" data-name="Forma 1" class="cls-1" d="M723.255,477.271A14.539,14.539,0,0,1,708.4,491.565H506.945c-71.693,0-97.723,32.362-97.723,32.362l-3.3,4.414-1.545,2.146h-0.013c-6.834,9.26-16.89.073-16.939,0.025l-4.636-5.788c-3.44-4.124-29.773-33.158-93.5-33.158H81.588a14.55,14.55,0,0,1-14.82-14.293V49.3A14.556,14.556,0,0,1,81.588,35H242.843c119.945,0,131.305,68.041,132.09,87.81V420.444c0,21.631,10.324,25.694,16.143,26.3h8.669c5.929-.6,15.37-4.124,15.37-21V118.972h-0.1c0.893-24.755,10.551-83.982,82.7-83.982H708.406a14.56,14.56,0,0,1,14.851,14.3V477.271h0Zm53.39-358.3h-0.7c-13.558.09-15.659-11.667-15.889-17.123V16.494A16.5,16.5,0,0,0,743.564,0H499.2c-61.31,0-84.178,22.693-89.852,29.819l-1.558,2.159-0.012.036-4.83,6.621h-0.025c-6.483,8.9-12.133,5.112-14.862,2.2l-9.249-11.522-4.576-5.51C366.552,15.741,346.509,0,306.787,0H46.454a16.5,16.5,0,0,0-16.517,16.5v84.271c0,14.752-8.023,17.713-12.95,18.208H13.329C9.328,119.219,0,121.54,0,138.668V540.3a17.85,17.85,0,0,0,17.869,17.82h237.6c75.8,0,108.832,28.552,118.732,39.5l5.651,6.993h0.013s15.164,17.121,31.138,0h0l3.321-3.882h0l0.047-.025,4.226-4.944c0.121-.145,1.134-1.279,2.608-2.773,12.654-12.3,44.263-34.872,106.079-34.872H772.13A17.841,17.841,0,0,0,790,540.3V134.777c0-14.521-10.528-15.728-13.354-15.8h0Z"/>
</svg>
