<svg xmlns="http://www.w3.org/2000/svg" width="612" height="612" viewBox="0 0 612 612">
  <defs>
    <style>
      .cls-1 {
        fill: #fff;
        fill-rule: evenodd;
      }
    </style>
  </defs>
  <path id="Forma_1" data-name="Forma 1" class="cls-1" d="M97.26,0a60.45,60.45,0,1,1-60.353,60.45A60.4,60.4,0,0,1,97.26,0ZM29.924,332.728H35.91v119.9A30.039,30.039,0,0,0,65.836,482.6h62.847a30.039,30.039,0,0,0,29.927-29.975v-6.994a75.854,75.854,0,0,1-8.978-34.972V253.793a74.767,74.767,0,0,1,44.89-68.444v-11.99A30.039,30.039,0,0,0,164.6,143.384H29.924A30.039,30.039,0,0,0,0,173.359V302.753A29.722,29.722,0,0,0,29.924,332.728ZM515.238,0a60.45,60.45,0,1,1-60.353,60.45A60.4,60.4,0,0,1,515.238,0ZM417.477,172.86v11.99a74.766,74.766,0,0,1,44.89,68.443V409.664a70.211,70.211,0,0,1-8.978,34.971v7a30.039,30.039,0,0,0,29.927,29.975h62.846a30.039,30.039,0,0,0,29.927-29.975v-119.9h5.986A30.039,30.039,0,0,0,612,301.753V172.86a30.038,30.038,0,0,0-29.926-29.975H447.4A30.039,30.039,0,0,0,417.477,172.86ZM195.021,253.793h0v156.87a30.039,30.039,0,0,0,29.926,29.976h11.472V582.022A30.039,30.039,0,0,0,266.346,612h80.3a30.039,30.039,0,0,0,29.927-29.975V440.139h11.472a30.039,30.039,0,0,0,29.927-29.975V253.793h0a30.039,30.039,0,0,0-29.927-29.975h-163.1A29.721,29.721,0,0,0,195.021,253.793ZM306.249,59.953A69.443,69.443,0,1,1,236.918,129.4,69.386,69.386,0,0,1,306.249,59.953Z"/>
</svg>
