<svg xmlns="http://www.w3.org/2000/svg" width="612" height="611.969" viewBox="0 0 612 611.969">
  <defs>
    <style>
      .cls-1 {
        fill: #fff;
        fill-rule: evenodd;
      }
    </style>
  </defs>
  <path id="Forma_1" data-name="Forma 1" class="cls-1" d="M367.491,128.363a41.072,41.072,0,0,0-58.115,0L294.848,142.9,91.445,346.433l0.052,0.053-6.409,6.424s-20.44,20.578-66.589,169.5c-0.324,1.041-.645,2.075-0.971,3.13q-1.234,4-2.493,8.127c-0.743,2.428-1.5,4.907-2.25,7.4-0.636,2.1-1.267,4.183-1.912,6.331-1.463,4.876-2.945,9.838-4.456,14.961C3.1,573.61-5,598.974,4.161,608.155c8.82,8.845,34.462,1.064,45.682-2.262,5.087-1.508,10.017-2.987,14.858-4.447,2.236-.674,4.4-1.335,6.589-2,2.35-.716,4.688-1.427,6.979-2.131q4.338-1.332,8.547-2.636c0.836-.259,1.657-0.517,2.487-0.774,141.748-44.119,167.2-64.823,169.31-66.717a0.128,0.128,0,0,0,.027-0.022c0.089-.082.151-0.137,0.151-0.137l6.562-6.575,0.44,0.439L469.2,317.36l0,0,14.527-14.537a41.139,41.139,0,0,0,0-58.153Zm-132.1,372.37c-0.178.121-.419,0.278-0.675,0.44-0.141.091-.312,0.2-0.48,0.3s-0.358.223-.557,0.344l-0.553.335c-6.767,4.048-26.626,14.494-74.822,31.934-5.632,2.037-11.765,4.2-18.19,6.423L71.6,471.956c2.234-6.47,4.4-12.646,6.441-18.319,17.409-48.379,27.849-68.289,31.877-75.044,0.1-.161.187-0.31,0.275-0.455q0.213-.349.4-0.647c0.1-.158.2-0.322,0.287-0.456,0.162-.253.319-0.494,0.44-0.674l5.014-5.026L240.512,495.6Zm364.563-372.37L483.719,12.058a41.077,41.077,0,0,0-58.115,0L396.548,41.135a41.136,41.136,0,0,0,0,58.15l116.23,116.306a41.078,41.078,0,0,0,58.116,0l29.057-29.076A41.138,41.138,0,0,0,599.951,128.363Z" transform="translate(0 -0.031)"/>
</svg>
