<svg xmlns="http://www.w3.org/2000/svg" width="609.594" height="609.594" viewBox="0 0 609.594 609.594">
  <defs>
    <style>
      .cls-1 {
        fill: #fff;
        fill-rule: evenodd;
      }
    </style>
  </defs>
  <path id="Forma_1" data-name="Forma 1" class="cls-1" d="M40.641,537.891v-459a38.3,38.3,0,0,1,38.25-38.25h382.5a38.276,38.276,0,0,1,38.25,38.25V303.759l38.25-38.25V78.891a76.5,76.5,0,0,0-76.5-76.5H78.891a76.5,76.5,0,0,0-76.5,76.5v459a76.5,76.5,0,0,0,76.5,76.5H289.266v-38.25H78.891A38.3,38.3,0,0,1,40.641,537.891Zm382.5-420.75h-306v38.25h306v-38.25Zm0,76.5h-306v38.25h306v-38.25Zm0,76.5h-306v38.25h306v-38.25Zm-306,114.75h153v-38.25h-153v38.25Zm486.044-38.25L576.141,319.6a38.239,38.239,0,0,0-54.088,0L357.847,483.8c-7.471,7.47-30.331,36.364-30.331,46.15l-19.125,84.438,84.419-19.125s38.7-22.861,46.169-30.332l164.206-164.2A38.237,38.237,0,0,0,603.185,346.641ZM425.494,551.375c-2.166,2.055-9.656,7.116-18.808,12.943l-49.549-49.549a170.215,170.215,0,0,1,14.232-17.444l123.64-123.636L549.1,427.777Z" transform="translate(-2.406 -2.406)"/>
</svg>
