<svg xmlns="http://www.w3.org/2000/svg" width="538" height="611.5" viewBox="0 0 538 611.5">
  <defs>
    <style>
      .cls-1 {
        fill: #fff;
        fill-rule: evenodd;
      }
    </style>
  </defs>
  <path id="Forma_1" data-name="Forma 1" class="cls-1" d="M268.629,103.016c-94.431,0-171.416,76.826-171.416,171.257a170.731,170.731,0,0,0,86.759,149.071V457.97c-12.344,5.122-19.416,16.648-19.416,30.073a32.967,32.967,0,0,0,17.066,28.8,33.693,33.693,0,0,0-16.951,29.314c0,18.179,14.775,33.429,32.952,33.429h4.013C216.851,598.1,240.9,612.5,267.967,612.5s51.116-14.4,66.33-32.914h3.271c18.181,0,32.914-15.25,32.914-33.429A33.311,33.311,0,0,0,353.491,517.1a32.966,32.966,0,0,0,16.837-28.929,33.486,33.486,0,0,0-17.673-29.21V423.344c53.486-30.4,87.071-86.611,87.071-149.071C439.73,179.842,363.062,103.016,268.629,103.016Zm60.5,295.609a16.613,16.613,0,0,0-9.384,14.787v42.745H284.774V320.709c0,0.018,2.213.032,3.184,0.032,14.7,0,35.807-2.433,52.118-14.027,37.753-26.831,25.144-69.307,24.587-71.1a16.386,16.386,0,0,0-9.222-10.247,84.425,84.425,0,0,0-33.187-7.074c-20.5,0-38.915,8.21-51.864,23.12-0.485.557-.93,1.142-1.4,1.712-0.463-.57-0.913-1.155-1.394-1.712-12.954-14.91-31.374-23.12-51.873-23.12a84.523,84.523,0,0,0-33.211,7.074,16.458,16.458,0,0,0-9.261,10.247c-0.558,1.8-13.25,44.272,24.5,71.1,16.313,11.6,36.912,14.027,51.6,14.027,0.977,0,2.5-.014,2.5-0.032V456.157H216.886V413.412a16.32,16.32,0,0,0-9.074-14.787,137.445,137.445,0,0,1-77.606-124.352c0-76.283,62.1-138.343,138.38-138.343s138.288,62.06,138.288,138.343A137.562,137.562,0,0,1,329.129,398.625ZM285.769,287.8c0.658-9.81,3.886-18.368,9.478-24.807,6.6-7.6,16.2-11.789,27.028-11.789a47.825,47.825,0,0,1,12.119,1.619c0.281,7.47-1.58,18.8-13.215,27.066-7.2,5.12-18.881,7.94-32.878,7.94Q287,287.828,285.769,287.8Zm-33.54,0c-0.814.021-1.664,0.031-2.53,0.031-13.994,0-25.671-2.82-32.877-7.94-11.656-8.286-13.5-19.642-13.223-27.062a47.832,47.832,0,0,1,12.129-1.623c10.824,0,20.419,4.186,27.024,11.789C248.344,269.43,251.573,277.988,252.229,287.8ZM268.316,72.5A24.687,24.687,0,0,0,293,47.815V25.186a24.686,24.686,0,1,0-49.371,0V47.815A24.687,24.687,0,0,0,268.316,72.5ZM126.707,95.9a24.686,24.686,0,1,0,41.536-26.689l-12.23-19.037a24.686,24.686,0,1,0-41.536,26.691ZM75.143,155.681l-20.58-9.4a24.687,24.687,0,0,0-20.518,44.908l20.58,9.4A24.686,24.686,0,1,0,75.143,155.681ZM43.557,278.759l-22.4,3.216A24.688,24.688,0,0,0,24.631,331.1a25,25,0,0,0,3.536-.255l22.4-3.216A24.685,24.685,0,0,0,43.557,278.759Zm473.316,2.833-22.4-3.238a24.687,24.687,0,1,0-7.068,48.866l22.395,3.237A24.687,24.687,0,0,0,516.873,281.592Zm-33.746-81.368,20.592-9.383a24.685,24.685,0,0,0-20.466-44.928L462.661,155.3A24.685,24.685,0,1,0,483.127,200.224ZM376.754,103.08a24.678,24.678,0,0,0,34.12-7.386L423.128,76.67a24.685,24.685,0,1,0-41.5-26.735L369.37,68.96A24.686,24.686,0,0,0,376.754,103.08Z" transform="translate(0 -0.5)"/>
</svg>
